PathFileType	4	(X/Y/Z)	C:/Users/opensim2020/Desktop/walking_exp_matlab/subject02_walking10_straight_03.trc																																																																																																																															
DataRate	CameraRate	NumFrames	NumMarkers	Units	OrigDataRate	OrigDataStartFrame	OrigNumFrames																																																																																																																											
100	100	5	43	mm	100	2257	270																																																																																																																											
Frame#	Time	LFHD			RFHD			LBHD			RBHD			C7			T10			CLAV			STRN			RBAK			LSHO			LUPA			LELB			LFRM			LWRA			LWRB			LFIN			RSHO			RUPA			RELB			RFRM			RWRA			RWRB			RFIN			LASI			RASI			LPSI			RPSI			LTHI			LKNE			LTIB			LANK			LHEE			LTOE			RTHI			RKNE			RTIB			RANK			RHEE			RTOE			*39			*40			*41			*42		
		X1	Y1	Z1	X2	Y2	Z2	X3	Y3	Z3	X4	Y4	Z4	X5	Y5	Z5	X6	Y6	Z6	X7	Y7	Z7	X8	Y8	Z8	X9	Y9	Z9	X10	Y10	Z10	X11	Y11	Z11	X12	Y12	Z12	X13	Y13	Z13	X14	Y14	Z14	X15	Y15	Z15	X16	Y16	Z16	X17	Y17	Z17	X18	Y18	Z18	X19	Y19	Z19	X20	Y20	Z20	X21	Y21	Z21	X22	Y22	Z22	X23	Y23	Z23	X24	Y24	Z24	X25	Y25	Z25	X26	Y26	Z26	X27	Y27	Z27	X28	Y28	Z28	X29	Y29	Z29	X30	Y30	Z30	X31	Y31	Z31	X32	Y32	Z32	X33	Y33	Z33	X34	Y34	Z34	X35	Y35	Z35	X36	Y36	Z36	X37	Y37	Z37	X38	Y38	Z38	X39	Y39	Z39	X40	Y40	Z40	X41	Y41	Z41	X42	Y42	Z42	X43	Y43	Z43
																																																																																																																																		
68	0.67	-532.71558	1744.08655	1474.36255	-534.27393	1720.60974	1617.1853	-663.21747	1671.4469	1462.56934	-678.33441	1646.84973	1603.27869	-722.30536	1529.0686	1539.67725	-776.97168	1253.24548	1553.64111	-586.79413	1459.90881	1517.25171	-534.896	1288.15625	1524.53418	-776.93958	1356.37561	1612.19421	-667.75793	1502.38513	1353.90698	-710.60754	1304.09399	1277.23096	-734.89984	1165.56006	1272.14783	-748.81366	1035.1095	1258.36218	-713.41895	900.75702	1284.68774	-759.76599	911.64178	1254.13318	-753.52661	843.54218	1253.40088	-629.71295	1496.17847	1719.04065	-644.81378	1305.86353	1809.76904	-624.2923	1160.64014	1827.7594	-586.88	1047.04248	1846.29919	-530.68054	924.17853	1826.4679	-575.10272	918.15289	1861.73657	-532.02423	859.79126	1864.72119	-556.93231	992.64337	1404.66638	-538.21295	980.52698	1657.99683	-758.711	1034.12244	1498.44116	-754.6698	1036.11743	1614.1615	-582.70148	684.04767	1332.61145	-572.32397	494.22784	1348.87012	-694.34918	352.84149	1371.21582	-778.32538	147.72113	1408.55664	-804.56439	129.93925	1470.07312	-666.21582	55.6518	1356.35254	-606.98486	672.40375	1719.05396	-607.87634	463.04211	1670.12415	-648.80286	277.92767	1669.89294	-666.64063	86.97086	1623.53796	-700.73743	33.48745	1565.98132	-514.95441	34.97325	1642.2738	-633.2688	1808.20654	1566.06641	2845.82788	1034.27808	-3357.49097	NaN	NaN	NaN	NaN	NaN	NaN
69	0.68	-524.98792	1744.38965	1474.25293	-526.17059	1721.26184	1616.85425	-655.93915	1671.53809	1462.96753	-670.26556	1647.43677	1603.88	-714.70343	1529.65869	1540.82166	-770.13733	1254.03271	1554.93469	-579.44458	1460.22559	1518.03345	-527.82617	1288.44409	1525.89661	-769.50604	1357.1803	1613.72876	-661.22095	1502.45825	1354.96826	-705.70453	1304.56348	1278.69543	-731.01483	1166.15894	1273.62585	-745.66266	1035.55505	1259.80884	-710.57123	901.62689	1284.86646	-757.16864	912.40851	1255.5918	-751.45697	844.55975	1254.05713	-621.16168	1497.15747	1719.85583	-635.25208	1306.87805	1811.05518	-613.82526	1161.61462	1828.99182	-574.65204	1048.70569	1847.54932	-517.6001	926.39856	1826.65247	-561.48602	919.79803	1862.36145	-517.70599	862.06403	1864.89294	-549.75122	993.80853	1406.56885	-531.48291	980.77509	1660.36462	-752.12805	1035.1886	1498.71228	-748.63422	1036.51465	1614.43176	-572.79419	685.48193	1333.15796	-559.77747	495.35895	1350.03101	-676.85828	349.0592	1371.51733	-752.98425	140.60333	1408.12024	-778.84424	121.51447	1469.39087	-637.01288	53.55489	1355.97925	-603.89081	672.16833	1719.24634	-606.01819	463.20929	1670.43909	-648.19489	278.00861	1669.85986	-666.50092	87.01891	1623.34436	-700.74536	33.80914	1565.99841	-514.83154	34.9732	1642.36853	-625.38702	1808.6593	1565.85669	2845.18066	1034.24756	-3360.25732	NaN	NaN	NaN	NaN	NaN	NaN
70	0.69	-517.73657	1744.12683	1473.46899	-518.0567	1721.76233	1616.40369	-648.53925	1671.53027	1463.35034	-662.43323	1647.93091	1604.12329	-707.18872	1530.16418	1541.89575	-763.30914	1254.74231	1556.06409	-572.17236	1460.39905	1518.72717	-521.04358	1288.43005	1527.02283	-761.64099	1358.06152	1615.53711	-654.64868	1502.33655	1355.94165	-701.08948	1305.14771	1280.16431	-726.88153	1166.58398	1275.06506	-742.87665	1036.29004	1260.99854	-707.83429	902.16022	1285.05261	-755.1308	912.97516	1256.76709	-748.81268	845.41949	1254.26135	-612.93372	1498.19275	1720.47583	-625.44141	1308.11084	1812.35974	-603.03516	1162.89734	1830.65979	-562.85785	1050.11426	1848.31458	-504.42596	928.48199	1826.76489	-547.84698	921.38879	1862.92065	-503.2644	864.02863	1864.98975	-542.55621	994.7868	1408.16785	-525.55933	980.38196	1662.23145	-745.58722	1036.10498	1498.94202	-742.62292	1036.7572	1614.62036	-563.53882	687.21753	1333.60535	-547.61938	496.29858	1351.20337	-659.44171	345.12701	1371.8739	-727.31995	133.55122	1407.34277	-752.55017	112.85482	1468.48682	-607.32941	51.82487	1355.22998	-600.75739	671.95648	1719.32092	-604.32397	462.79028	1670.24548	-647.35962	278.1033	1669.76416	-666.29419	87.1263	1623.17383	-700.72333	33.91801	1565.82715	-514.97638	34.89539	1642.54333	-617.40045	1809.20728	1565.62195	2845.92188	1034.10413	-3357.37378	NaN	NaN	NaN	NaN	NaN	NaN
71	0.7	-510.17383	1743.78113	1472.84851	-509.90778	1722.09644	1615.83899	-641.26563	1671.5238	1463.61658	-654.46991	1648.4873	1604.53076	-699.86517	1530.8147	1542.96887	-756.46844	1255.35327	1557.0426	-564.8924	1460.49268	1519.33167	-514.12317	1288.44922	1528.23401	-754.8562	1359.23877	1617.47644	-647.97351	1502.12439	1356.85181	-696.39374	1305.17444	1281.36743	-722.73077	1166.87903	1276.46143	-739.82599	1036.60229	1261.86121	-704.40405	902.38959	1285.1377	-752.09595	913.45886	1258.14771	-746.08636	846.0871	1254.57361	-604.85834	1498.86267	1721.17664	-615.91003	1308.87891	1813.53064	-592.34595	1163.89417	1831.9574	-550.59125	1051.55627	1849.23755	-491.0777	930.68512	1826.91626	-534.22943	922.88867	1863.29919	-488.85339	866.17377	1864.85425	-535.3125	995.5849	1409.56653	-519.89093	979.80713	1663.83594	-739.04199	1036.80432	1499.12915	-736.57672	1036.94995	1614.75195	-554.06116	688.52765	1333.99463	-536.02319	497.11697	1352.47034	-642.1474	341.0864	1372.19507	-701.08344	126.32844	1406.27026	-725.69672	104.53768	1467.14209	-577.36359	50.50388	1354.1853	-597.55902	671.84625	1719.50171	-602.3595	462.29904	1670.01428	-646.22052	278.18701	1669.73572	-666.08044	87.22639	1623.01428	-700.32947	33.68255	1565.63281	-514.95032	34.8877	1642.64868	-609.47174	1809.3595	1564.98657	2845.85254	1034.30481	-3357.33325	NaN	NaN	NaN	NaN	NaN	NaN
72	0.71	-502.64517	1743.47021	1472.07861	-501.57315	1722.42297	1615.08179	-635.09521	1671.41357	1463.5968	-646.40265	1649.02673	1605.14722	-692.30896	1531.08191	1543.85095	-749.73163	1255.86084	1557.99976	-557.63684	1460.49011	1519.91479	-507.01065	1288.42603	1529.54004	-747.44257	1359.651	1618.60974	-641.32458	1501.7843	1357.71265	-691.45361	1305.146	1282.64465	-718.5661	1167.14929	1277.68225	-736.54504	1036.97656	1262.9386	-701.00879	902.79907	1285.43994	-749.74481	914.01996	1258.9845	-743.20984	846.53625	1254.76855	-596.60345	1499.62646	1721.76831	-606.20764	1309.92126	1814.71863	-581.73083	1164.82837	1833.19043	-538.8208	1052.79077	1849.6062	-477.7897	932.64575	1826.76306	-520.6684	924.37476	1863.57983	-474.78625	867.94116	1864.51392	-528.13605	996.17114	1410.69263	-514.12415	979.1803	1665.30933	-732.47662	1037.3186	1499.30359	-730.49127	1037.03259	1614.78381	-544.82727	689.97412	1334.41626	-524.78845	497.68234	1353.6676	-624.91339	336.88953	1372.38281	-674.36084	119.31645	1404.9364	-698.29242	96.46722	1465.5188	-547.08942	49.28379	1353.15076	-593.46753	670.96594	1719.38281	-600.0274	462.31339	1670.18933	-644.91486	278.27097	1669.59045	-665.84937	87.27689	1622.84448	-700.22375	33.78909	1565.46057	-514.91785	35.04969	1642.82861	-601.3125	1809.74707	1564.66919	2845.16431	1034.16516	-3360.24878	NaN	NaN	NaN	NaN	NaN	NaN
